<?xml version="1.0" encoding="UTF-8"?>
<svg xmlns="http://www.w3.org/2000/svg" viewBox="0 0 1920 1080" width="1920" height="1080" role="img" aria-labelledby="title desc">
  <title id="title">Ophelia</title>
  <desc id="desc">Página 1 del brandbook con logotipo Ophelia en vector.</desc>
  <path fill-rule="nonzero" fill="#585c3f" d="M 0 1080 L 1920 1080 L 1920 1.234375 L 0 1.234375 Z M 0 1080 "/>
  <path fill-rule="nonzero" fill="#ffffff" d="M 676.929688 511.964844 C 676.929688 456.964844 646.492188 417.714844 602.441406 417.714844 C 560.523438 417.714844 530.082031 455.894531 530.082031 511.699219 C 530.082031 565.363281 559.1875 601.410156 604.308594 601.410156 C 647.828125 601.410156 676.929688 565.363281 676.929688 511.964844 M 511.660156 511.164062 C 511.660156 454.292969 549.039062 415.046875 602.707031 415.046875 C 657.707031 415.046875 695.355469 454.828125 695.355469 511.699219 C 695.355469 567.765625 658.777344 604.078125 604.308594 604.078125 C 547.972656 604.078125 511.660156 567.234375 511.660156 511.164062 "/>
  <path fill-rule="nonzero" fill="#ffffff" d="M 602.441406 418.765625 C 582.378906 418.765625 564.242188 427.878906 551.371094 444.425781 C 538.324219 461.207031 531.136719 485.097656 531.136719 511.699219 C 531.136719 537.886719 538.035156 560.125 551.085938 576.011719 C 564.175781 591.9375 582.578125 600.355469 604.308594 600.355469 C 647.117188 600.355469 675.878906 564.835938 675.878906 511.964844 C 675.878906 457.089844 645.679688 418.765625 602.441406 418.765625 M 604.308594 602.460938 C 581.925781 602.460938 562.960938 593.777344 549.460938 577.347656 C 536.097656 561.078125 529.03125 538.378906 529.03125 511.699219 C 529.03125 484.628906 536.375 460.28125 549.710938 443.136719 C 562.988281 426.066406 581.714844 416.664062 602.441406 416.664062 C 646.917969 416.664062 677.984375 455.851562 677.984375 511.964844 C 677.984375 566.09375 648.375 602.460938 604.308594 602.460938 M 602.707031 416.097656 C 576.648438 416.097656 554.210938 425.226562 537.820312 442.503906 C 521.394531 459.816406 512.710938 483.558594 512.710938 511.164062 C 512.710938 566.96875 548.664062 603.027344 604.308594 603.027344 C 630.839844 603.027344 653.386719 594.433594 669.507812 578.175781 C 685.730469 561.820312 694.300781 538.832031 694.300781 511.699219 C 694.300781 484.011719 685.519531 460.175781 668.894531 442.773438 C 652.230469 425.320312 629.34375 416.097656 602.707031 416.097656 M 604.308594 605.128906 C 576.429688 605.128906 552.847656 596.230469 536.113281 579.390625 C 519.425781 562.601562 510.609375 539.007812 510.609375 511.164062 C 510.609375 453.953125 548.480469 413.992188 602.707031 413.992188 C 629.929688 413.992188 653.34375 423.441406 670.417969 441.320312 C 687.417969 459.121094 696.40625 483.460938 696.40625 511.699219 C 696.40625 539.398438 687.621094 562.898438 671.003906 579.65625 C 654.476562 596.320312 631.414062 605.128906 604.308594 605.128906 "/>
  <path fill-rule="nonzero" fill="#ffffff" d="M 738.605469 539.199219 L 738.605469 550.945312 C 740.207031 574.175781 755.425781 596.605469 782.925781 596.605469 C 814.964844 596.605469 837.394531 567.234375 837.394531 527.71875 C 837.394531 490.070312 816.835938 466.308594 788 466.308594 C 746.613281 466.308594 738.605469 514.367188 738.605469 539.199219 M 752.753906 663.621094 L 752.753906 664.953125 L 707.367188 664.953125 L 707.367188 663.621094 C 716.976562 662.285156 721.515625 655.609375 721.515625 642.792969 L 721.515625 482.0625 C 721.515625 469.246094 715.375 465.242188 708.167969 464.707031 L 708.167969 463.371094 L 735.132812 460.167969 L 738.605469 461.503906 L 738.605469 514.101562 C 745.546875 480.726562 766.105469 459.367188 796.542969 459.367188 C 830.71875 459.367188 855.816406 486.332031 855.816406 527.984375 C 855.816406 571.238281 828.582031 602.476562 789.867188 602.476562 C 761.566406 602.476562 745.8125 586.191406 738.605469 563.496094 L 738.605469 641.457031 C 738.605469 655.34375 743.144531 662.285156 752.753906 663.621094 "/>
  <path fill-rule="nonzero" fill="#ffffff" d="M 739.65625 550.910156 C 741.152344 572.417969 755.328125 595.550781 782.925781 595.550781 C 813.878906 595.550781 836.339844 567.023438 836.339844 527.71875 C 836.339844 491.617188 816.914062 467.359375 788 467.359375 C 770.300781 467.359375 757.089844 476.289062 748.734375 493.894531 C 740.539062 511.152344 739.65625 531.328125 739.65625 539.199219 Z M 710.941406 663.902344 L 749.191406 663.902344 C 741.273438 661.390625 737.554688 654.15625 737.554688 641.457031 L 737.554688 556.710938 L 739.605469 563.175781 C 740.105469 564.75 740.644531 566.277344 741.214844 567.757812 C 739.15625 562.339844 737.941406 556.625 737.554688 551.019531 L 737.554688 539.199219 C 737.554688 531.183594 738.457031 510.636719 746.832031 492.992188 C 755.566406 474.589844 769.417969 465.257812 788 465.257812 C 818.171875 465.257812 838.445312 490.359375 838.445312 527.71875 C 838.445312 568.242188 815.097656 597.65625 782.925781 597.65625 C 762.429688 597.65625 748.996094 585.546875 742.34375 570.507812 C 745.992188 578.894531 750.902344 585.660156 756.996094 590.683594 C 765.636719 597.8125 776.695312 601.425781 789.867188 601.425781 C 808.238281 601.425781 824.824219 594.085938 836.570312 580.753906 C 848.304688 567.441406 854.765625 548.703125 854.765625 527.984375 C 854.765625 508.046875 849.039062 491.023438 838.207031 478.753906 C 827.769531 466.929688 812.972656 460.417969 796.542969 460.417969 C 767.5 460.417969 746.757812 480.0625 739.632812 514.316406 L 737.554688 524.324219 L 737.554688 462.226562 L 735 461.242188 L 711.152344 464.078125 C 718.730469 465.757812 722.566406 471.792969 722.566406 482.0625 L 722.566406 642.792969 C 722.566406 654.5 718.757812 661.441406 710.941406 663.902344 M 753.808594 666.007812 L 706.3125 666.007812 L 706.3125 662.703125 L 707.222656 662.578125 C 716.257812 661.324219 720.464844 655.035156 720.464844 642.792969 L 720.464844 482.0625 C 720.464844 471.707031 716.417969 466.371094 708.089844 465.753906 L 707.113281 465.683594 L 707.113281 462.4375 L 735.269531 459.09375 L 739.65625 460.78125 L 739.65625 505.585938 C 743.554688 492.414062 749.828125 481.417969 758.03125 473.464844 C 768.253906 463.554688 781.570312 458.316406 796.542969 458.316406 C 813.585938 458.316406 828.941406 465.078125 839.785156 477.359375 C 850.960938 490.023438 856.867188 507.527344 856.867188 527.984375 C 856.867188 549.214844 850.21875 568.449219 838.148438 582.144531 C 825.996094 595.933594 808.851562 603.527344 789.867188 603.527344 C 765.902344 603.527344 748.652344 591.804688 739.65625 569.53125 L 739.65625 641.457031 C 739.65625 654.792969 743.742188 661.304688 752.898438 662.578125 L 753.808594 662.703125 Z M 753.808594 666.007812 "/>
  <path fill-rule="nonzero" fill="#ffffff" d="M 966.886719 516.238281 C 963.949219 484.464844 950.597656 468.179688 933.242188 468.179688 C 911.351562 468.179688 896.398438 494.34375 896.398438 526.917969 L 896.398438 579.78125 C 896.398438 593.664062 900.9375 600.609375 910.550781 601.941406 L 910.550781 603.277344 L 865.160156 603.277344 L 865.160156 601.941406 C 874.769531 600.609375 879.308594 593.933594 879.308594 581.117188 L 879.308594 439.074219 C 879.308594 425.726562 873.167969 421.722656 865.691406 421.1875 L 865.691406 419.851562 L 892.660156 416.382812 L 896.398438 417.714844 L 896.398438 507.425781 C 900.402344 480.992188 918.023438 460.167969 940.183594 460.167969 C 963.148438 460.167969 980.769531 482.0625 983.707031 513.566406 L 989.582031 575.511719 C 990.914062 588.859375 994.121094 595.535156 1001.863281 595.535156 C 1007.203125 595.535156 1010.140625 592.597656 1012.542969 589.125 L 1013.609375 589.394531 C 1011.738281 593.933594 1007.46875 603.277344 995.453125 603.277344 C 980.769531 603.277344 973.828125 589.125 972.492188 575.777344 Z M 966.886719 516.238281 "/>
  <path fill-rule="nonzero" fill="#ffffff" d="M 868.738281 602.226562 L 906.984375 602.226562 C 899.066406 599.714844 895.347656 592.480469 895.347656 579.78125 L 895.347656 526.917969 C 895.347656 520.183594 895.980469 513.667969 897.203125 507.566406 L 895.347656 507.425781 L 895.347656 418.457031 L 892.542969 417.457031 L 868.652344 420.53125 C 876.523438 422.179688 880.363281 428.277344 880.363281 439.074219 L 880.363281 581.117188 C 880.363281 592.824219 876.550781 599.765625 868.738281 602.226562 M 967.933594 516.136719 L 973.539062 575.679688 C 975.496094 595.25 986.144531 602.226562 995.453125 602.226562 C 1004.019531 602.226562 1008.441406 597.101562 1010.785156 592.929688 C 1008.683594 595.003906 1005.910156 596.585938 1001.863281 596.585938 C 991.992188 596.585938 989.621094 586.507812 988.535156 575.617188 L 982.660156 513.667969 C 981.234375 498.378906 976.386719 485.253906 968.636719 475.714844 C 960.9375 466.230469 951.097656 461.21875 940.183594 461.21875 C 920.929688 461.21875 904.027344 478.09375 898.488281 502.078125 C 900.222656 495.652344 902.65625 489.796875 905.710938 484.785156 C 912.660156 473.398438 922.4375 467.125 933.242188 467.125 C 952.125 467.125 965.09375 485.449219 967.933594 516.136719 Z M 995.453125 604.328125 C 979.832031 604.328125 972.757812 589.003906 971.445312 575.882812 L 965.835938 516.332031 C 963.113281 486.839844 950.925781 469.230469 933.242188 469.230469 C 923.199219 469.230469 914.058594 475.144531 907.507812 485.878906 C 901.023438 496.511719 897.449219 511.085938 897.449219 526.917969 L 897.449219 579.78125 C 897.449219 593.117188 901.535156 599.628906 910.695312 600.902344 L 911.601562 601.027344 L 911.601562 604.328125 L 864.109375 604.328125 L 864.109375 601.027344 L 865.015625 600.902344 C 874.050781 599.644531 878.257812 593.359375 878.257812 581.117188 L 878.257812 439.074219 C 878.257812 428.203125 874.242188 422.851562 865.617188 422.234375 L 864.640625 422.164062 L 864.640625 418.925781 L 892.777344 415.304688 L 897.449219 416.972656 L 897.449219 497.734375 C 900.195312 488.277344 904.753906 479.773438 910.703125 473.179688 C 919 463.980469 929.195312 459.117188 940.183594 459.117188 C 951.753906 459.117188 962.15625 464.398438 970.273438 474.390625 C 978.28125 484.253906 983.289062 497.765625 984.753906 513.46875 L 990.628906 575.410156 C 991.980469 588.957031 995.238281 594.484375 1001.863281 594.484375 C 1006.867188 594.484375 1009.535156 591.621094 1011.675781 588.527344 L 1012.089844 587.929688 L 1015.046875 588.667969 L 1014.582031 589.792969 C 1012.945312 593.769531 1008.597656 604.328125 995.453125 604.328125 "/>
  <path fill-rule="nonzero" fill="#ffffff" d="M 1077.6875 461.769531 C 1055.792969 461.769531 1040.839844 479.925781 1034.164062 501.550781 L 1115.066406 501.550781 C 1115.066406 480.460938 1100.914062 461.769531 1077.6875 461.769531 M 1137.492188 568.300781 C 1131.886719 583.519531 1112.664062 604.078125 1079.289062 604.078125 C 1040.039062 604.078125 1012.273438 574.710938 1012.273438 531.457031 C 1012.273438 485 1044.046875 459.101562 1078.222656 459.101562 C 1108.65625 459.101562 1130.820312 478.589844 1130.820312 500.484375 L 1130.820312 503.6875 L 1033.632812 503.6875 C 1031.496094 511.699219 1030.160156 519.976562 1030.160156 527.984375 C 1030.160156 564.5625 1054.726562 589.925781 1086.496094 589.925781 C 1113.195312 589.925781 1130.550781 576.042969 1135.890625 567.5 Z M 1137.492188 568.300781 "/>
  <path fill-rule="nonzero" fill="#ffffff" d="M 1035.605469 500.5 L 1114.003906 500.5 C 1113.507812 475.757812 1095.488281 462.820312 1077.6875 462.820312 C 1058.96875 462.820312 1043.3125 476.875 1035.605469 500.5 M 1116.117188 502.605469 L 1032.742188 502.605469 L 1033.160156 501.242188 C 1040.992188 475.867188 1057.636719 460.71875 1077.6875 460.71875 C 1089.015625 460.71875 1098.761719 464.984375 1105.875 473.054688 C 1112.480469 480.550781 1116.117188 490.671875 1116.117188 501.550781 Z M 1078.222656 460.152344 C 1061.003906 460.152344 1045.007812 466.703125 1033.175781 478.597656 C 1020.191406 491.65625 1013.324219 509.933594 1013.324219 531.457031 C 1013.324219 552.324219 1019.722656 570.242188 1031.832031 583.273438 C 1043.671875 596.011719 1060.527344 603.027344 1079.289062 603.027344 C 1093.960938 603.027344 1107.414062 598.882812 1118.1875 591.046875 C 1126.269531 585.164062 1132.699219 577.277344 1136.003906 569.226562 C 1132.570312 574.085938 1126.589844 579.097656 1119.707031 582.839844 C 1109.921875 588.164062 1098.4375 590.980469 1086.496094 590.980469 C 1070.664062 590.980469 1056.15625 584.734375 1045.644531 573.386719 C 1034.980469 561.882812 1029.109375 545.757812 1029.109375 527.984375 C 1029.109375 520.40625 1030.289062 512.140625 1032.617188 503.417969 L 1032.824219 502.636719 L 1129.769531 502.636719 L 1129.769531 500.484375 C 1129.769531 489.984375 1124.617188 480.007812 1115.269531 472.398438 C 1105.574219 464.5 1092.414062 460.152344 1078.222656 460.152344 M 1079.289062 605.128906 C 1039.210938 605.128906 1011.222656 574.835938 1011.222656 531.457031 C 1011.222656 509.367188 1018.296875 490.574219 1031.6875 477.113281 C 1043.914062 464.820312 1060.441406 458.046875 1078.222656 458.046875 C 1092.898438 458.046875 1106.527344 462.566406 1116.597656 470.765625 C 1126.304688 478.667969 1131.871094 489.5 1131.871094 500.484375 L 1131.871094 504.738281 L 1034.445312 504.738281 C 1032.300781 513 1031.214844 520.816406 1031.214844 527.984375 C 1031.214844 563.269531 1054.464844 588.875 1086.496094 588.875 C 1112.027344 588.875 1129.488281 575.757812 1135 566.941406 L 1135.507812 566.132812 L 1138.804688 567.78125 L 1138.480469 568.664062 C 1135.210938 577.535156 1128.265625 586.3125 1119.421875 592.746094 C 1108.289062 600.847656 1094.410156 605.128906 1079.289062 605.128906 "/>
  <path fill-rule="nonzero" fill="#ffffff" d="M 1146.835938 603.277344 L 1146.835938 601.941406 C 1156.445312 600.609375 1160.984375 593.667969 1160.984375 580.050781 L 1160.984375 438.808594 C 1160.984375 425.726562 1154.84375 421.722656 1147.371094 421.1875 L 1147.371094 419.851562 C 1159.382812 421.1875 1166.058594 420.386719 1174.601562 416.378906 L 1178.074219 417.714844 L 1178.074219 580.050781 C 1178.074219 593.667969 1182.613281 600.609375 1192.226562 601.941406 L 1192.226562 603.277344 Z M 1146.835938 603.277344 "/>
  <path fill-rule="nonzero" fill="#ffffff" d="M 1150.363281 602.226562 L 1188.695312 602.226562 C 1180.847656 599.707031 1177.023438 592.414062 1177.023438 580.050781 L 1177.023438 418.4375 L 1174.640625 417.523438 C 1167.625 420.753906 1161.804688 421.871094 1153.128906 421.398438 C 1159.046875 423.847656 1162.039062 429.679688 1162.039062 438.808594 L 1162.039062 580.050781 C 1162.039062 592.414062 1158.210938 599.707031 1150.363281 602.226562 M 1193.277344 604.328125 L 1145.78125 604.328125 L 1145.78125 601.027344 L 1146.691406 600.902344 C 1155.726562 599.644531 1159.933594 593.019531 1159.933594 580.050781 L 1159.933594 438.808594 C 1159.933594 428.117188 1155.917969 422.851562 1147.292969 422.234375 L 1146.316406 422.164062 L 1146.316406 418.675781 L 1147.484375 418.804688 C 1159.394531 420.128906 1165.878906 419.308594 1174.15625 415.429688 L 1174.5625 415.238281 L 1179.125 416.992188 L 1179.125 580.050781 C 1179.125 593.019531 1183.335938 599.644531 1192.367188 600.902344 L 1193.277344 601.027344 Z M 1193.277344 604.328125 "/>
  <path fill-rule="nonzero" fill="#ffffff" d="M 1210.375 431.332031 C 1210.375 424.925781 1214.914062 418.25 1224.527344 418.25 C 1234.140625 418.25 1238.945312 424.925781 1238.945312 431.332031 C 1238.945312 438.007812 1234.140625 444.683594 1224.527344 444.683594 C 1214.914062 444.683594 1210.375 438.007812 1210.375 431.332031 M 1236.808594 576.042969 C 1236.808594 592.332031 1241.347656 600.339844 1250.960938 601.941406 L 1250.960938 603.277344 L 1205.570312 603.277344 L 1205.570312 601.941406 C 1215.183594 600.609375 1219.722656 593.933594 1219.722656 581.117188 L 1219.722656 482.863281 C 1219.722656 469.511719 1213.582031 465.507812 1206.105469 464.972656 L 1206.105469 463.640625 L 1233.070312 460.167969 L 1236.808594 461.503906 Z M 1236.808594 576.042969 "/>
  <path fill-rule="nonzero" fill="#ffffff" d="M 1224.527344 419.300781 C 1215.527344 419.300781 1211.429688 425.535156 1211.429688 431.332031 C 1211.429688 437.453125 1215.476562 443.628906 1224.527344 443.628906 C 1233.710938 443.628906 1237.894531 437.257812 1237.894531 431.332031 C 1237.894531 423.433594 1231.167969 419.300781 1224.527344 419.300781 M 1224.527344 445.734375 C 1214.082031 445.734375 1209.324219 438.269531 1209.324219 431.332031 C 1209.324219 424.523438 1214.082031 417.199219 1224.527344 417.199219 C 1234.683594 417.199219 1239.996094 424.308594 1239.996094 431.332031 C 1239.996094 435.101562 1238.613281 438.621094 1236.097656 441.238281 C 1233.277344 444.179688 1229.273438 445.734375 1224.527344 445.734375 M 1209.148438 602.226562 L 1247.773438 602.226562 C 1239.59375 599.410156 1235.757812 590.984375 1235.757812 576.042969 L 1235.757812 462.242188 L 1232.953125 461.242188 L 1209.0625 464.316406 C 1216.933594 465.96875 1220.773438 472.066406 1220.773438 482.863281 L 1220.773438 581.117188 C 1220.773438 592.824219 1216.960938 599.765625 1209.148438 602.226562 M 1252.011719 604.328125 L 1204.519531 604.328125 L 1204.519531 601.027344 L 1205.425781 600.902344 C 1214.460938 599.644531 1218.667969 593.359375 1218.667969 581.117188 L 1218.667969 482.863281 C 1218.667969 471.988281 1214.652344 466.640625 1206.027344 466.023438 L 1205.054688 465.953125 L 1205.054688 462.714844 L 1233.1875 459.09375 L 1237.859375 460.761719 L 1237.859375 576.042969 C 1237.859375 591.707031 1241.953125 599.375 1251.132812 600.90625 L 1252.011719 601.050781 Z M 1252.011719 604.328125 "/>
  <path fill-rule="nonzero" fill="#ffffff" d="M 1278.988281 571.773438 C 1278.988281 586.992188 1289.136719 596.871094 1302.484375 596.871094 C 1331.585938 596.871094 1351.613281 549.613281 1357.753906 513.835938 C 1328.917969 521.042969 1278.988281 538.132812 1278.988281 571.773438 M 1360.691406 513.03125 C 1354.550781 549.078125 1336.660156 604.078125 1292.339844 604.078125 C 1274.183594 604.078125 1262.96875 594.734375 1262.96875 578.179688 C 1262.96875 538.664062 1327.316406 518.375 1360.15625 510.628906 L 1360.15625 510.363281 C 1355.617188 486.066406 1343.601562 462.839844 1325.445312 462.839844 C 1307.023438 462.839844 1295.542969 486.601562 1295.277344 506.890625 L 1279.523438 492.742188 C 1282.726562 477.523438 1300.882812 460.167969 1325.714844 460.167969 C 1351.878906 460.167969 1371.371094 479.65625 1375.644531 502.351562 L 1391.664062 586.191406 C 1393.796875 596.871094 1402.339844 600.875 1407.949219 600.875 L 1408.214844 603.277344 L 1377.511719 603.277344 Z M 1360.691406 513.03125 "/>
  <path fill-rule="nonzero" fill="#ffffff" d="M 1356.433594 515.253906 C 1327.167969 522.746094 1280.042969 539.789062 1280.042969 571.773438 C 1280.042969 585.929688 1289.269531 595.816406 1302.484375 595.816406 C 1318.519531 595.816406 1330.550781 580.824219 1337.820312 568.242188 C 1346.203125 553.738281 1352.949219 534.507812 1356.433594 515.253906 M 1302.484375 597.921875 C 1288.03125 597.921875 1277.9375 587.167969 1277.9375 571.773438 C 1277.9375 556.625 1287.726562 543.234375 1307.027344 531.980469 C 1323.289062 522.503906 1343.449219 516.328125 1357.5 512.8125 L 1359.0625 512.421875 L 1358.789062 514.011719 C 1353 547.742188 1333.226562 597.921875 1302.484375 597.921875 M 1378.386719 602.226562 L 1407.039062 602.226562 L 1407.003906 601.894531 C 1403.871094 601.679688 1400.59375 600.425781 1397.871094 598.378906 C 1394.140625 595.570312 1391.636719 591.425781 1390.628906 586.394531 L 1374.609375 502.550781 C 1370.742188 482.011719 1352.707031 461.21875 1325.714844 461.21875 C 1302.25 461.21875 1284.234375 477.273438 1280.683594 492.371094 L 1294.300781 504.601562 C 1294.824219 494.753906 1297.882812 484.476562 1302.65625 476.707031 C 1308.566406 467.085938 1316.660156 461.785156 1325.445312 461.785156 C 1334.179688 461.785156 1342.25 467.015625 1348.785156 476.910156 C 1353.933594 484.707031 1358.089844 495.394531 1360.609375 507.253906 L 1360.644531 507.042969 Z M 1359.835938 511.789062 C 1343.242188 515.726562 1319.546875 522.648438 1299.75 533.414062 C 1276.042969 546.308594 1264.023438 561.367188 1264.023438 578.179688 C 1264.023438 593.972656 1274.34375 603.027344 1292.339844 603.027344 C 1339.230469 603.027344 1355.035156 539.96875 1359.65625 512.855469 Z M 1292.339844 605.132812 C 1273.289062 605.132812 1261.917969 595.054688 1261.917969 578.179688 C 1261.917969 560.539062 1274.308594 544.855469 1298.746094 531.566406 C 1318.597656 520.769531 1342.285156 513.8125 1358.984375 509.828125 C 1354.847656 488.464844 1343.660156 463.890625 1325.445312 463.890625 C 1308.367188 463.890625 1296.601562 486.132812 1296.328125 506.90625 L 1296.296875 509.222656 L 1278.371094 493.121094 L 1278.496094 492.523438 C 1281.875 476.457031 1300.890625 459.117188 1325.714844 459.117188 C 1338.414062 459.117188 1350.125 463.558594 1359.585938 471.964844 C 1368.417969 479.808594 1374.488281 490.535156 1376.675781 502.160156 L 1392.695312 585.992188 C 1393.804688 591.546875 1398.785156 599.824219 1407.949219 599.824219 L 1408.890625 599.824219 L 1409.390625 604.332031 L 1376.636719 604.332031 L 1360.699219 518.824219 C 1354.859375 548.664062 1337.789062 605.132812 1292.339844 605.132812 "/>
</svg>
